<svg width="48" height="48" viewBox="0 0 256 256" fill="none" xmlns="http://www.w3.org/2000/svg">
  <rect width="256" height="256" rx="60" fill="#242938"/>
  <g transform="translate(68, 68) scale(5)">
    <path d="M11.968 1.458c-1.579.52-2.825 2.502-2.903 4.618a38.455 38.455 0 0 1-.225 3.328 17.525 17.525 0 0 1-1.396-1.527c-1.258-1.597-3.033-2.616-4.996-2.868-2.637-.336-5.467.57-7.234 2.316a5.526 5.526 0 0 0-1.077 1.442c.877-1.127 2.368-2.029 4.316-2.607 1.637-.485 3.737-.504 5.253-.047 1.446.436 2.668 1.258 3.513 2.37.521.685.932 1.459 1.144 2.164a27.604 27.604 0 0 1 .465 2.16c-1.018-.633-2.148-1.026-3.238-1.125-1.554-.14-3.243.153-4.706.82-1.332.607-2.606 1.602-3.666 2.86-1.151 1.365-2.062 2.894-2.482 4.168-.13.394-.183.67-.183.945.545-1.338 1.667-2.923 3.195-4.512 1.253-1.304 2.843-2.522 4.542-3.483 1.954-.153 4.22.427 6.47 1.656 1.05.575 2.053 1.282 2.81 2.001l-1.32.766c-.958.557-2.16 1.056-3.418 1.423-1.636.478-3.435.632-4.954.425-2.28-.31-4.703-1.422-6.529-2.993 1.543 1.704 3.766 2.973 6.002 3.42 1.57.316 3.292.203 4.881-.318 1.472-.482 2.854-1.295 3.844-2.261l1.454-1.42 1.037.95c1.476 1.353 2.904 3.013 3.864 4.492.934 1.439 1.583 2.905 1.761 3.978.118.71-.059 1.272-.619 1.959a7.615 7.615 0 0 1-1.325 1.299c.954-.881 1.758-2.219 2.213-3.676.368-1.176.432-2.316.188-3.359-.228-.97-.666-1.921-1.281-2.775a22.106 22.106 0 0 0-2.348-2.723l-.113.111c-1.505 1.488-3.13 2.658-4.778 3.436-1.895.894-3.992 1.273-5.83.995-1.993-.3-3.83-1.218-5.361-2.684.772 1.83 2.25 3.616 4.148 4.975 1.378.987 3.078 1.666 4.877 1.946 1.579.245 3.33-.035 4.966-.789a16.634 16.634 0 0 0 4.091-2.83l.267.575c.677 1.464.912 3.033.682 4.544-.226 1.492-.852 2.978-1.786 4.237-1.459 1.967-3.666 3.66-6.104 4.68-.456.19-.884.341-1.3.447.881-.225 1.821-.632 2.768-1.2 1.438-.86 2.87-2.146 3.997-3.585 1.299-1.657 2.222-3.633 2.505-5.364.123-.75.051-1.41-.24-2.203-1.077 2.052-2.782 4.128-4.839 5.89-1.948 1.666-4.279 3.003-6.685 3.831-.497.172-.996.31-1.494.407-.15.029-.292.053-.43.072 1.636-.201 3.398-.718 5.234-1.528 2.378-1.047 4.707-2.612 6.643-4.462a34.34 34.34 0 0 0 4.935-5.815c1.472-2.155 2.518-4.453 3.011-6.623.197-.866.26-1.551.155-2.227 1.317 1.05 2.548 2.457 3.491 4.12 1.45 2.559 2.208 5.617 2.091 8.441a18.36 18.36 0 0 1-.95 4.674c-.456 1.261-1.127 2.441-1.934 3.486 1.018-1.066 1.872-2.454 2.456-4.047.832-2.268 1.139-4.877.868-7.359-.283-2.585-1.122-5.07-2.417-7.142-1.341-2.145-3.07-3.882-4.908-4.929l-1.017-.581.42-1.096c.706-1.84 1.094-3.87 1.136-5.932.046-2.152-.279-4.324-.951-6.353-.889-2.684-2.315-5.26-4.14-7.48a17.206 17.206 0 0 0-2.355-2.32c1.238 1.157 2.4 2.54 3.415 4.074 1.571 2.375 2.766 5.093 3.447 7.842.665 2.686.757 5.372.27 7.747-.323 1.579-.906 3.036-1.688 4.218.497-1.309.821-2.735.94-4.156.126-1.493-.058-2.993-.527-4.298-.445-1.237-1.13-2.298-1.986-3.064-.999-.894-2.279-1.454-3.693-1.614-2.235-.253-4.84.453-7.53 2.04l-1.152.68-.073-1.328c-.131-2.392-.78-4.825-1.868-7.008-1.116-2.245-2.658-4.25-4.437-5.772-2.195-1.879-4.721-3.094-7.382-3.55a15.286 15.286 0 0 0-2.793-.198" fill="#1AD1A5"/>
  </g>
</svg>
